<mxfile host="app.diagrams.net" modified="2023-03-27T03:29:44.349Z" agent="Mozilla/5.0 (Windows NT 10.0; Win64; x64; rv:109.0) Gecko/20100101 Firefox/111.0" etag="nItsRGkVKlqGotopTsf6" version="21.1.1" type="github">
  <diagram id="C5RBs43oDa-KdzZeNtuy" name="Page-1">
    <mxGraphModel dx="1434" dy="792" grid="1" gridSize="10" guides="1" tooltips="1" connect="1" arrows="1" fold="1" page="1" pageScale="1" pageWidth="827" pageHeight="1169" math="0" shadow="0">
      <root>
        <mxCell id="WIyWlLk6GJQsqaUBKTNV-0" />
        <mxCell id="WIyWlLk6GJQsqaUBKTNV-1" parent="WIyWlLk6GJQsqaUBKTNV-0" />
        <mxCell id="OsXRu5IHjc4yldnsyBO6-8" value="" style="edgeStyle=orthogonalEdgeStyle;rounded=0;orthogonalLoop=1;jettySize=auto;html=1;" edge="1" parent="WIyWlLk6GJQsqaUBKTNV-1" source="OsXRu5IHjc4yldnsyBO6-0" target="OsXRu5IHjc4yldnsyBO6-7">
          <mxGeometry relative="1" as="geometry" />
        </mxCell>
        <mxCell id="OsXRu5IHjc4yldnsyBO6-10" value="" style="edgeStyle=orthogonalEdgeStyle;rounded=0;orthogonalLoop=1;jettySize=auto;html=1;" edge="1" parent="WIyWlLk6GJQsqaUBKTNV-1" source="OsXRu5IHjc4yldnsyBO6-0">
          <mxGeometry relative="1" as="geometry">
            <mxPoint x="270" y="295" as="targetPoint" />
          </mxGeometry>
        </mxCell>
        <mxCell id="OsXRu5IHjc4yldnsyBO6-15" style="edgeStyle=orthogonalEdgeStyle;rounded=0;orthogonalLoop=1;jettySize=auto;html=1;entryX=0;entryY=0.5;entryDx=0;entryDy=0;" edge="1" parent="WIyWlLk6GJQsqaUBKTNV-1" source="OsXRu5IHjc4yldnsyBO6-0" target="OsXRu5IHjc4yldnsyBO6-13">
          <mxGeometry relative="1" as="geometry" />
        </mxCell>
        <mxCell id="OsXRu5IHjc4yldnsyBO6-0" value="各程序日志" style="rounded=1;whiteSpace=wrap;html=1;verticalAlign=top;" vertex="1" parent="WIyWlLk6GJQsqaUBKTNV-1">
          <mxGeometry x="80" y="170" width="120" height="250" as="geometry" />
        </mxCell>
        <mxCell id="OsXRu5IHjc4yldnsyBO6-1" value="&lt;div&gt;zhgd-system&lt;/div&gt;" style="rounded=0;whiteSpace=wrap;html=1;" vertex="1" parent="WIyWlLk6GJQsqaUBKTNV-1">
          <mxGeometry x="95" y="220" width="90" height="20" as="geometry" />
        </mxCell>
        <mxCell id="OsXRu5IHjc4yldnsyBO6-2" value="&lt;div&gt;zhgd-gateway&lt;/div&gt;" style="rounded=0;whiteSpace=wrap;html=1;" vertex="1" parent="WIyWlLk6GJQsqaUBKTNV-1">
          <mxGeometry x="95" y="250" width="90" height="20" as="geometry" />
        </mxCell>
        <mxCell id="OsXRu5IHjc4yldnsyBO6-3" value="&lt;div&gt;zhgd-auth&lt;/div&gt;" style="rounded=0;whiteSpace=wrap;html=1;" vertex="1" parent="WIyWlLk6GJQsqaUBKTNV-1">
          <mxGeometry x="95" y="280" width="90" height="20" as="geometry" />
        </mxCell>
        <mxCell id="OsXRu5IHjc4yldnsyBO6-4" value="..." style="rounded=0;whiteSpace=wrap;html=1;" vertex="1" parent="WIyWlLk6GJQsqaUBKTNV-1">
          <mxGeometry x="95" y="370" width="90" height="20" as="geometry" />
        </mxCell>
        <mxCell id="OsXRu5IHjc4yldnsyBO6-5" value="&lt;div&gt;zhgd-alarm&lt;/div&gt;" style="rounded=0;whiteSpace=wrap;html=1;" vertex="1" parent="WIyWlLk6GJQsqaUBKTNV-1">
          <mxGeometry x="95" y="340" width="90" height="20" as="geometry" />
        </mxCell>
        <mxCell id="OsXRu5IHjc4yldnsyBO6-6" value="&lt;div&gt;zhgd-resource&lt;/div&gt;" style="rounded=0;whiteSpace=wrap;html=1;" vertex="1" parent="WIyWlLk6GJQsqaUBKTNV-1">
          <mxGeometry x="95" y="310" width="90" height="20" as="geometry" />
        </mxCell>
        <mxCell id="OsXRu5IHjc4yldnsyBO6-17" style="edgeStyle=orthogonalEdgeStyle;rounded=0;orthogonalLoop=1;jettySize=auto;html=1;entryX=0;entryY=0.5;entryDx=0;entryDy=0;" edge="1" parent="WIyWlLk6GJQsqaUBKTNV-1" source="OsXRu5IHjc4yldnsyBO6-7" target="OsXRu5IHjc4yldnsyBO6-16">
          <mxGeometry relative="1" as="geometry" />
        </mxCell>
        <mxCell id="OsXRu5IHjc4yldnsyBO6-7" value="filebeat" style="whiteSpace=wrap;html=1;verticalAlign=top;rounded=1;" vertex="1" parent="WIyWlLk6GJQsqaUBKTNV-1">
          <mxGeometry x="270" y="230" width="90" height="25" as="geometry" />
        </mxCell>
        <mxCell id="OsXRu5IHjc4yldnsyBO6-18" style="edgeStyle=orthogonalEdgeStyle;rounded=0;orthogonalLoop=1;jettySize=auto;html=1;entryX=0;entryY=0.5;entryDx=0;entryDy=0;" edge="1" parent="WIyWlLk6GJQsqaUBKTNV-1" source="OsXRu5IHjc4yldnsyBO6-12" target="OsXRu5IHjc4yldnsyBO6-16">
          <mxGeometry relative="1" as="geometry" />
        </mxCell>
        <mxCell id="OsXRu5IHjc4yldnsyBO6-12" value="filebeat" style="whiteSpace=wrap;html=1;verticalAlign=top;rounded=1;" vertex="1" parent="WIyWlLk6GJQsqaUBKTNV-1">
          <mxGeometry x="270" y="282.5" width="90" height="25" as="geometry" />
        </mxCell>
        <mxCell id="OsXRu5IHjc4yldnsyBO6-19" style="edgeStyle=orthogonalEdgeStyle;rounded=0;orthogonalLoop=1;jettySize=auto;html=1;entryX=0;entryY=0.5;entryDx=0;entryDy=0;" edge="1" parent="WIyWlLk6GJQsqaUBKTNV-1" source="OsXRu5IHjc4yldnsyBO6-13" target="OsXRu5IHjc4yldnsyBO6-16">
          <mxGeometry relative="1" as="geometry" />
        </mxCell>
        <mxCell id="OsXRu5IHjc4yldnsyBO6-13" value="filebeat" style="whiteSpace=wrap;html=1;verticalAlign=top;rounded=1;" vertex="1" parent="WIyWlLk6GJQsqaUBKTNV-1">
          <mxGeometry x="270" y="335" width="90" height="25" as="geometry" />
        </mxCell>
        <mxCell id="OsXRu5IHjc4yldnsyBO6-23" value="" style="edgeStyle=orthogonalEdgeStyle;rounded=0;orthogonalLoop=1;jettySize=auto;html=1;" edge="1" parent="WIyWlLk6GJQsqaUBKTNV-1" source="OsXRu5IHjc4yldnsyBO6-16" target="OsXRu5IHjc4yldnsyBO6-22">
          <mxGeometry relative="1" as="geometry" />
        </mxCell>
        <mxCell id="OsXRu5IHjc4yldnsyBO6-16" value="Logstash解析" style="rounded=1;whiteSpace=wrap;html=1;verticalAlign=top;" vertex="1" parent="WIyWlLk6GJQsqaUBKTNV-1">
          <mxGeometry x="420" y="215" width="120" height="160" as="geometry" />
        </mxCell>
        <mxCell id="OsXRu5IHjc4yldnsyBO6-20" value="处理输入" style="rounded=0;whiteSpace=wrap;html=1;" vertex="1" parent="WIyWlLk6GJQsqaUBKTNV-1">
          <mxGeometry x="430" y="266" width="100" height="32" as="geometry" />
        </mxCell>
        <mxCell id="OsXRu5IHjc4yldnsyBO6-21" value="过滤、解析" style="rounded=0;whiteSpace=wrap;html=1;" vertex="1" parent="WIyWlLk6GJQsqaUBKTNV-1">
          <mxGeometry x="430" y="308" width="100" height="32" as="geometry" />
        </mxCell>
        <mxCell id="OsXRu5IHjc4yldnsyBO6-29" value="" style="edgeStyle=orthogonalEdgeStyle;rounded=0;orthogonalLoop=1;jettySize=auto;html=1;" edge="1" parent="WIyWlLk6GJQsqaUBKTNV-1" source="OsXRu5IHjc4yldnsyBO6-22" target="OsXRu5IHjc4yldnsyBO6-28">
          <mxGeometry relative="1" as="geometry" />
        </mxCell>
        <mxCell id="OsXRu5IHjc4yldnsyBO6-22" value="ES集群" style="rounded=1;whiteSpace=wrap;html=1;verticalAlign=top;" vertex="1" parent="WIyWlLk6GJQsqaUBKTNV-1">
          <mxGeometry x="420" y="420" width="120" height="160" as="geometry" />
        </mxCell>
        <mxCell id="OsXRu5IHjc4yldnsyBO6-24" value="ES" style="shape=cylinder3;whiteSpace=wrap;html=1;boundedLbl=1;backgroundOutline=1;size=15;direction=south;" vertex="1" parent="WIyWlLk6GJQsqaUBKTNV-1">
          <mxGeometry x="440" y="452.5" width="80" height="32.5" as="geometry" />
        </mxCell>
        <mxCell id="OsXRu5IHjc4yldnsyBO6-25" value="ES" style="shape=cylinder3;whiteSpace=wrap;html=1;boundedLbl=1;backgroundOutline=1;size=15;direction=south;" vertex="1" parent="WIyWlLk6GJQsqaUBKTNV-1">
          <mxGeometry x="440" y="487.5" width="80" height="32.5" as="geometry" />
        </mxCell>
        <mxCell id="OsXRu5IHjc4yldnsyBO6-26" value="ES" style="shape=cylinder3;whiteSpace=wrap;html=1;boundedLbl=1;backgroundOutline=1;size=15;direction=south;" vertex="1" parent="WIyWlLk6GJQsqaUBKTNV-1">
          <mxGeometry x="440" y="525" width="80" height="32.5" as="geometry" />
        </mxCell>
        <mxCell id="OsXRu5IHjc4yldnsyBO6-28" value="Kibana日志展示" style="whiteSpace=wrap;html=1;verticalAlign=middle;rounded=1;" vertex="1" parent="WIyWlLk6GJQsqaUBKTNV-1">
          <mxGeometry x="95" y="470" width="120" height="60" as="geometry" />
        </mxCell>
      </root>
    </mxGraphModel>
  </diagram>
</mxfile>
